#!OML:ASF H:\BreakDance\Project 1\Capture day 1\Session 1\Male.ASF
:FULLY-SPECIFIED
:DEGREES
891
root 6.55327 14.7036 2.81662 187.419 -120.099 171.686
lowerback 2.84852 0.971479 3.67641
upperback 11.0112 1.04018 -2.09464
thorax 10.241 0.835656 -4.26185
lowerneck -8.58955 -5.39288 4.18272
upperneck 21.4794 -10.5356 8.75491
head 8.4202 -3.97002 1.16533
rclavicle -1.59028e-014 1.11319e-014
rhumerus 21.3176 -2.13569 -67.4579
rradius 45.2075
rwrist 22.782
rhand -49.6289 -56.1583
rfingers 7.12502
rthumb -22.2329 -84.8995
lclavicle -1.59028e-014 1.11319e-014
lhumerus 53.039 -34.3357 45.8861
lradius 46.0433
lwrist -16.1586
lhand -44.6714 -47.5315
lfingers 7.12502
lthumb -17.4675 -18.2963
rfemur -15.1142 -13.656 6.65472
rtibia 59.6266
rfoot -25.7689 -8.86834
rtoes -46.0103
lfemur -19.1415 18.4587 -3.54079
ltibia 65.2822
lfoot -39.2514 -2.58568
ltoes -44.9098
892
root 6.57259 14.6988 2.80045 187.486 -120.261 171.865
lowerback 2.32319 0.957635 3.41866
upperback 10.6977 1.04225 -2.13667
thorax 10.1849 0.817354 -4.15426
lowerneck -8.72222 -5.46341 4.12443
upperneck 21.8439 -10.6862 8.72296
head 8.57506 -4.02604 1.14164
rclavicle -4.49253e-014 6.36111e-015
rhumerus 20.7501 -2.77931 -67.8017
rradius 45.1418
rwrist 22.6499
rhand -49.4655 -56.3528
rfingers 7.12502
rthumb -22.076 -85.1126
lclavicle -4.49253e-014 6.36111e-015
lhumerus 52.2568 -34.4961 46.7652
lradius 46.4792
lwrist -16.4323
lhand -44.686 -47.146
lfingers 7.12502
lthumb -17.4815 -17.912
rfemur -15.1255 -13.7816 7.00958
rtibia 59.1287
rfoot -26.1614 -10.8384
rtoes -45.8199
lfemur -18.8719 18.4845 -4.19588
ltibia 64.2364
lfoot -40.7739 0.0351071
ltoes -45.3104
893
root 6.60476 14.7103 2.78716 187.345 -120.217 172.285
lowerback 2.02059 0.967016 3.10019
upperback 10.4443 1.08046 -2.21441
thorax 10.0692 0.810994 -4.05076
lowerneck -8.89734 -5.51137 4.08242
upperneck 22.0631 -10.768 8.619
head 8.6804 -4.05988 1.09801
rclavicle -4.41302e-014 3.49861e-014
rhumerus 20.3769 -3.37517 -68.098
rradius 45.0785
rwrist 22.5515
rhand -49.277 -56.6437
rfingers 7.12502
rthumb -21.8951 -85.4248
lclavicle -4.41302e-014 3.49861e-014
lhumerus 51.3483 -34.4416 47.8463
lradius 46.9382
lwrist -16.8301
lhand -44.6624 -46.739
lfingers 7.12502
lthumb -17.4588 -17.503
rfemur -15.4958 -13.8874 7.17274
rtibia 58.9993
rfoot -26.0752 -12.5708
rtoes -45.6781
lfemur -18.8208 18.5324 -5.05862
ltibia 63.4266
lfoot -41.6667 2.18343
ltoes -45.3467
894
root 6.65031 14.7339 2.77681 187.075 -120.026 172.848
lowerback 1.8954 0.992344 2.80528
upperback 10.2504 1.13954 -2.31451
thorax 9.92059 0.816983 -3.98499
lowerneck -9.0152 -5.55793 4.01555
upperneck 22.0644 -10.8022 8.51394
head 8.69916 -4.08596 1.06643
rclavicle -3.73715e-014 1.43125e-014
rhumerus 20.1473 -3.97673 -68.3877
rradius 45.0293
rwrist 22.55
rhand -49.0628 -56.9584
rfingers 7.12502
rthumb -21.6894 -85.7634
lclavicle -3.73715e-014 1.43125e-014
lhumerus 50.3289 -34.2231 49.1002
lradius 47.4241
lwrist -17.3005
lhand -44.5887 -46.4208
lfingers 7.12502
lthumb -17.3878 -17.1785
rfemur -16.1028 -13.9677 7.17662
rtibia 59.0865
rfoot -26.6973 -11.6008
rtoes -41.7378
lfemur -18.9745 18.4611 -6.02672
ltibia 62.8744
lfoot -42.0305 3.71418
ltoes -44.9912
895
root 6.70652 14.7665 2.76956 186.868 -119.781 173.326
lowerback 1.88463 1.01887 2.65059
upperback 10.1103 1.19156 -2.39613
thorax 9.76969 0.830516 -3.98023
lowerneck -9.0141 -5.61509 3.89902
upperneck 21.844 -10.8058 8.44061
head 8.62241 -4.11351 1.06244
rclavicle 1.11319e-014 -2.3059e-014
rhumerus 19.983 -4.6538 -68.726
rradius 45.0309
rwrist 22.7353
rhand -48.8515 -57.1801
rfingers 7.12502
rthumb -21.4864 -86.0084
lclavicle 1.11319e-014 -2.3059e-014
lhumerus 49.2366 -33.9034 50.4588
lradius 47.9262
lwrist -17.7562
lhand -44.5897 -46.346
lfingers 7.12502
lthumb -17.3888 -17.1038
rfemur -16.8165 -14.0559 7.13705
rtibia 59.2497
rfoot -26.8231 -10.7916
rtoes -38.2843
lfemur -19.3133 18.1812 -6.92076
ltibia 62.5777
lfoot -41.977 4.72701
ltoes -44.4803
